<?xml version="1.0" encoding="UTF-8"?>
<svg id="Layer_2" data-name="Layer 2" xmlns="http://www.w3.org/2000/svg" viewBox="0 0 459.91 404.66">
  <defs>
    <style>
      .cls-1 {
        fill: #5dbd76;
      }
    </style>
  </defs>
  <g id="Layer_1-2" data-name="Layer 1">
    <g>
      <path class="cls-1" d="M250.72,155.77h0c-9.23-15.98,2.31-35.96,20.76-35.96h41.49l.02.03-20.75,35.93c-9.23,15.98-32.3,15.98-41.52,0Z"/>
      <path class="cls-1" d="M435.9,404.66H24.01c-18.46,0-29.99-19.98-20.76-35.96L209.19,11.99c9.23-15.98,32.3-15.98,41.53,0l13.83,23.95c4.28,7.42,4.28,16.56,0,23.97l-34.59,59.9-105.44,182.62c-9.23,15.98,2.31,35.96,20.76,35.96h169.35c18.46,0,29.99-19.98,20.76-35.96l-43.15-74.73c-9.23-15.98,2.31-35.96,20.76-35.96h27.65c8.57,0,16.48,4.57,20.76,11.99l95.25,164.98c9.23,15.98-2.31,35.96-20.76,35.96Z"/>
    </g>
  </g>
</svg>